# Blender v2.83.1 OBJ File: 'button1.blend'
# www.blender.org
mtllib button1.mtl
o Cylinder
v -0.000000 0.000000 -1.200000
v 0.000000 0.200000 -1.000000
v 0.234108 0.000000 -1.176942
v 0.195090 0.200000 -0.980785
v 0.459220 0.000000 -1.108655
v 0.382683 0.200000 -0.923880
v 0.666684 0.000000 -0.997764
v 0.555570 0.200000 -0.831470
v 0.848528 0.000000 -0.848528
v 0.707107 0.200000 -0.707107
v 0.997764 0.000000 -0.666684
v 0.831470 0.200000 -0.555570
v 1.108655 0.000000 -0.459220
v 0.923880 0.200000 -0.382683
v 1.176942 0.000000 -0.234108
v 0.980785 0.200000 -0.195090
v 1.200000 0.000000 -0.000000
v 1.000000 0.200000 -0.000000
v 1.176942 0.000000 0.234108
v 0.980785 0.200000 0.195090
v 1.108655 0.000000 0.459220
v 0.923880 0.200000 0.382683
v 0.997764 0.000000 0.666684
v 0.831470 0.200000 0.555570
v 0.848528 0.000000 0.848528
v 0.707107 0.200000 0.707107
v 0.666684 0.000000 0.997764
v 0.555570 0.200000 0.831470
v 0.459220 0.000000 1.108656
v 0.382683 0.200000 0.923880
v 0.234108 0.000000 1.176943
v 0.195090 0.200000 0.980785
v -0.000000 0.000000 1.200000
v -0.000000 0.200000 1.000000
v -0.234109 0.000000 1.176942
v -0.195091 0.200000 0.980785
v -0.459221 0.000000 1.108655
v -0.382684 0.200000 0.923879
v -0.666685 0.000000 0.997763
v -0.555571 0.200000 0.831469
v -0.848529 0.000000 0.848528
v -0.707107 0.200000 0.707106
v -0.997764 0.000000 0.666684
v -0.831470 0.200000 0.555570
v -1.108656 0.000000 0.459219
v -0.923880 0.200000 0.382683
v -1.176943 0.000000 0.234107
v -0.980785 0.200000 0.195089
v -1.200000 0.000000 -0.000001
v -1.000000 0.200000 -0.000001
v -1.176942 0.000000 -0.234110
v -0.980785 0.200000 -0.195091
v -1.108655 0.000000 -0.459221
v -0.923879 0.200000 -0.382684
v -0.997763 0.000000 -0.666685
v -0.831469 0.200000 -0.555571
v -0.848527 0.000000 -0.848529
v -0.707106 0.200000 -0.707108
v -0.666683 0.000000 -0.997764
v -0.555569 0.200000 -0.831470
v -0.459219 0.000000 -1.108656
v -0.382682 0.200000 -0.923880
v -0.234107 0.000000 -1.176943
v -0.195089 0.200000 -0.980786
v 0.000000 0.200000 -0.901199
v 0.175815 0.200000 -0.883883
v 0.344874 0.200000 -0.832600
v 0.500679 0.200000 -0.749320
v 0.637244 0.200000 -0.637244
v 0.749320 0.200000 -0.500679
v 0.832600 0.200000 -0.344874
v 0.883883 0.200000 -0.175815
v 0.901199 0.200000 -0.000000
v 0.883883 0.200000 0.175815
v 0.832600 0.200000 0.344874
v 0.749320 0.200000 0.500679
v 0.637244 0.200000 0.637244
v 0.500679 0.200000 0.749320
v 0.344874 0.200000 0.832600
v 0.175815 0.200000 0.883883
v -0.000000 0.200000 0.901199
v -0.175816 0.200000 0.883883
v -0.344874 0.200000 0.832599
v -0.500680 0.200000 0.749319
v -0.637245 0.200000 0.637244
v -0.749320 0.200000 0.500679
v -0.832600 0.200000 0.344873
v -0.883883 0.200000 0.175814
v -0.901199 0.200000 -0.000001
v -0.883883 0.200000 -0.175816
v -0.832599 0.200000 -0.344875
v -0.749319 0.200000 -0.500680
v -0.637243 0.200000 -0.637245
v -0.500678 0.200000 -0.749321
v -0.344873 0.200000 -0.832600
v -0.175814 0.200000 -0.883883
v 0.000000 0.100000 -0.901199
v 0.175815 0.100000 -0.883883
v 0.344874 0.100000 -0.832600
v 0.500679 0.100000 -0.749320
v 0.637244 0.100000 -0.637244
v 0.749320 0.100000 -0.500679
v 0.832600 0.100000 -0.344874
v 0.883883 0.100000 -0.175815
v 0.901199 0.100000 -0.000000
v 0.883883 0.100000 0.175815
v 0.832600 0.100000 0.344874
v 0.749320 0.100000 0.500679
v 0.637244 0.100000 0.637244
v 0.500679 0.100000 0.749320
v 0.344874 0.100000 0.832600
v 0.175815 0.100000 0.883883
v -0.000000 0.100000 0.901199
v -0.175816 0.100000 0.883883
v -0.344874 0.100000 0.832599
v -0.500680 0.100000 0.749319
v -0.637245 0.100000 0.637244
v -0.749320 0.100000 0.500679
v -0.832600 0.100000 0.344873
v -0.883883 0.100000 0.175814
v -0.901199 0.100000 -0.000001
v -0.883883 0.100000 -0.175816
v -0.832599 0.100000 -0.344875
v -0.749319 0.100000 -0.500680
v -0.637243 0.100000 -0.637245
v -0.500678 0.100000 -0.749321
v -0.344873 0.100000 -0.832600
v -0.175814 0.100000 -0.883883
vt 1.000000 0.500000
vt 1.000000 1.000000
vt 0.968750 1.000000
vt 0.968750 0.500000
vt 0.937500 1.000000
vt 0.937500 0.500000
vt 0.906250 1.000000
vt 0.906250 0.500000
vt 0.875000 1.000000
vt 0.875000 0.500000
vt 0.843750 1.000000
vt 0.843750 0.500000
vt 0.812500 1.000000
vt 0.812500 0.500000
vt 0.781250 1.000000
vt 0.781250 0.500000
vt 0.750000 1.000000
vt 0.750000 0.500000
vt 0.718750 1.000000
vt 0.718750 0.500000
vt 0.687500 1.000000
vt 0.687500 0.500000
vt 0.656250 1.000000
vt 0.656250 0.500000
vt 0.625000 1.000000
vt 0.625000 0.500000
vt 0.593750 1.000000
vt 0.593750 0.500000
vt 0.562500 1.000000
vt 0.562500 0.500000
vt 0.531250 1.000000
vt 0.531250 0.500000
vt 0.500000 1.000000
vt 0.500000 0.500000
vt 0.468750 1.000000
vt 0.468750 0.500000
vt 0.437500 1.000000
vt 0.437500 0.500000
vt 0.406250 1.000000
vt 0.406250 0.500000
vt 0.375000 1.000000
vt 0.375000 0.500000
vt 0.343750 1.000000
vt 0.343750 0.500000
vt 0.312500 1.000000
vt 0.312500 0.500000
vt 0.281250 1.000000
vt 0.281250 0.500000
vt 0.250000 1.000000
vt 0.250000 0.500000
vt 0.218750 1.000000
vt 0.218750 0.500000
vt 0.187500 1.000000
vt 0.187500 0.500000
vt 0.156250 1.000000
vt 0.156250 0.500000
vt 0.125000 1.000000
vt 0.125000 0.500000
vt 0.093750 1.000000
vt 0.093750 0.500000
vt 0.062500 1.000000
vt 0.062500 0.500000
vt 0.875000 1.000000
vt 0.843750 1.000000
vt 0.031250 1.000000
vt 0.031250 0.500000
vt 0.000000 1.000000
vt 0.000000 0.500000
vt 0.750000 0.490000
vt 0.796822 0.485388
vt 0.841844 0.471731
vt 0.883337 0.449553
vt 0.919706 0.419706
vt 0.949553 0.383337
vt 0.971731 0.341844
vt 0.985388 0.296822
vt 0.990000 0.250000
vt 0.985388 0.203178
vt 0.971731 0.158156
vt 0.949553 0.116663
vt 0.919706 0.080294
vt 0.883337 0.050447
vt 0.841844 0.028269
vt 0.796822 0.014612
vt 0.750000 0.010000
vt 0.703178 0.014612
vt 0.658156 0.028269
vt 0.616663 0.050447
vt 0.580294 0.080294
vt 0.550447 0.116663
vt 0.528269 0.158156
vt 0.514611 0.203179
vt 0.510000 0.250000
vt 0.514612 0.296822
vt 0.528269 0.341844
vt 0.550447 0.383337
vt 0.580295 0.419706
vt 0.616663 0.449553
vt 0.658156 0.471731
vt 0.703179 0.485389
vt 0.625000 1.000000
vt 0.656250 1.000000
vt 0.656250 1.000000
vt 0.625000 1.000000
vt 0.593750 1.000000
vt 0.562500 1.000000
vt 0.312500 1.000000
vt 0.281250 1.000000
vt 1.000000 1.000000
vt 0.968750 1.000000
vt 0.031250 1.000000
vt 0.000000 1.000000
vt 0.718750 1.000000
vt 0.687500 1.000000
vt 0.437500 1.000000
vt 0.406250 1.000000
vt 0.156250 1.000000
vt 0.125000 1.000000
vt 0.812500 1.000000
vt 0.531250 1.000000
vt 0.250000 1.000000
vt 0.937500 1.000000
vt 0.375000 1.000000
vt 0.093750 1.000000
vt 0.781250 1.000000
vt 0.500000 1.000000
vt 0.218750 1.000000
vt 0.906250 1.000000
vt 0.343750 1.000000
vt 0.062500 1.000000
vt 0.750000 1.000000
vt 0.468750 1.000000
vt 0.187500 1.000000
vt 0.296822 0.485388
vt 0.250000 0.490000
vt 0.203179 0.485389
vt 0.158156 0.471731
vt 0.116663 0.449553
vt 0.080295 0.419706
vt 0.050447 0.383337
vt 0.028269 0.341844
vt 0.014612 0.296822
vt 0.010000 0.250000
vt 0.014611 0.203179
vt 0.028269 0.158156
vt 0.050447 0.116663
vt 0.080294 0.080294
vt 0.116663 0.050447
vt 0.158156 0.028269
vt 0.203178 0.014612
vt 0.250000 0.010000
vt 0.296822 0.014612
vt 0.341844 0.028269
vt 0.383337 0.050447
vt 0.419706 0.080294
vt 0.449553 0.116663
vt 0.471731 0.158156
vt 0.485388 0.203178
vt 0.490000 0.250000
vt 0.485388 0.296822
vt 0.471731 0.341844
vt 0.449553 0.383337
vt 0.419706 0.419706
vt 0.383337 0.449553
vt 0.341844 0.471731
vt 0.218750 1.000000
vt 0.187500 1.000000
vt 0.593750 1.000000
vt 0.156250 1.000000
vt 0.562500 1.000000
vt 1.000000 1.000000
vt 0.968750 1.000000
vt 0.125000 1.000000
vt 0.531250 1.000000
vt 0.937500 1.000000
vt 0.093750 1.000000
vt 0.500000 1.000000
vt 0.906250 1.000000
vt 0.062500 1.000000
vt 0.468750 1.000000
vt 0.875000 1.000000
vt 0.031250 1.000000
vt 0.437500 1.000000
vt 0.843750 1.000000
vt 0.000000 1.000000
vt 0.406250 1.000000
vt 0.812500 1.000000
vt 0.375000 1.000000
vt 0.781250 1.000000
vt 0.343750 1.000000
vt 0.750000 1.000000
vt 0.312500 1.000000
vt 0.718750 1.000000
vt 0.281250 1.000000
vt 0.687500 1.000000
vt 0.250000 1.000000
vn 0.0695 0.7054 -0.7054
vn 0.2058 0.7054 -0.6783
vn 0.3341 0.7054 -0.6251
vn 0.4497 0.7054 -0.5479
vn 0.5479 0.7054 -0.4497
vn 0.6251 0.7054 -0.3341
vn 0.6783 0.7054 -0.2058
vn 0.7054 0.7054 -0.0695
vn 0.7054 0.7054 0.0695
vn 0.6783 0.7054 0.2058
vn 0.6251 0.7054 0.3341
vn 0.5479 0.7054 0.4497
vn 0.4497 0.7054 0.5479
vn 0.3341 0.7054 0.6251
vn 0.2058 0.7054 0.6783
vn 0.0695 0.7054 0.7054
vn -0.0695 0.7054 0.7054
vn -0.2058 0.7054 0.6783
vn -0.3341 0.7054 0.6251
vn -0.4497 0.7054 0.5479
vn -0.5479 0.7054 0.4497
vn -0.6251 0.7054 0.3341
vn -0.6783 0.7054 0.2058
vn -0.7054 0.7054 0.0695
vn -0.7054 0.7054 -0.0695
vn -0.6783 0.7054 -0.2058
vn -0.6251 0.7054 -0.3341
vn -0.5479 0.7054 -0.4497
vn -0.4497 0.7054 -0.5479
vn -0.3341 0.7054 -0.6251
vn -0.0000 1.0000 0.0000
vn -0.2058 0.7054 -0.6783
vn -0.0695 0.7054 -0.7054
vn 0.0000 -1.0000 0.0000
vn -0.7730 0.0000 -0.6344
vn 0.9569 0.0000 0.2903
vn -0.6344 0.0000 -0.7730
vn 0.8819 0.0000 0.4714
vn -0.4714 0.0000 -0.8819
vn -0.0980 0.0000 0.9952
vn 0.7730 0.0000 0.6344
vn -0.2903 0.0000 -0.9569
vn -0.2903 0.0000 0.9569
vn 0.6344 0.0000 0.7730
vn -0.0980 0.0000 -0.9952
vn -0.4714 0.0000 0.8819
vn 0.4714 0.0000 0.8819
vn 0.0980 0.0000 -0.9952
vn -0.6344 0.0000 0.7730
vn 0.2903 0.0000 0.9569
vn 0.2903 0.0000 -0.9569
vn -0.7730 0.0000 0.6344
vn 0.0980 0.0000 0.9952
vn 0.4714 0.0000 -0.8819
vn -0.8819 0.0000 0.4714
vn 0.6344 0.0000 -0.7730
vn -0.9569 0.0000 0.2903
vn 0.7730 0.0000 -0.6344
vn -0.9952 0.0000 0.0980
vn 0.8819 0.0000 -0.4714
vn -0.9952 0.0000 -0.0980
vn 0.9569 0.0000 -0.2903
vn -0.9569 0.0000 -0.2903
vn 0.9952 0.0000 -0.0980
vn -0.8819 0.0000 -0.4714
vn 0.9952 0.0000 0.0980
usemtl None
s off
f 1/1/1 2/2/1 4/3/1 3/4/1
f 3/4/2 4/3/2 6/5/2 5/6/2
f 5/6/3 6/5/3 8/7/3 7/8/3
f 7/8/4 8/7/4 10/9/4 9/10/4
f 9/10/5 10/9/5 12/11/5 11/12/5
f 11/12/6 12/11/6 14/13/6 13/14/6
f 13/14/7 14/13/7 16/15/7 15/16/7
f 15/16/8 16/15/8 18/17/8 17/18/8
f 17/18/9 18/17/9 20/19/9 19/20/9
f 19/20/10 20/19/10 22/21/10 21/22/10
f 21/22/11 22/21/11 24/23/11 23/24/11
f 23/24/12 24/23/12 26/25/12 25/26/12
f 25/26/13 26/25/13 28/27/13 27/28/13
f 27/28/14 28/27/14 30/29/14 29/30/14
f 29/30/15 30/29/15 32/31/15 31/32/15
f 31/32/16 32/31/16 34/33/16 33/34/16
f 33/34/17 34/33/17 36/35/17 35/36/17
f 35/36/18 36/35/18 38/37/18 37/38/18
f 37/38/19 38/37/19 40/39/19 39/40/19
f 39/40/20 40/39/20 42/41/20 41/42/20
f 41/42/21 42/41/21 44/43/21 43/44/21
f 43/44/22 44/43/22 46/45/22 45/46/22
f 45/46/23 46/45/23 48/47/23 47/48/23
f 47/48/24 48/47/24 50/49/24 49/50/24
f 49/50/25 50/49/25 52/51/25 51/52/25
f 51/52/26 52/51/26 54/53/26 53/54/26
f 53/54/27 54/53/27 56/55/27 55/56/27
f 55/56/28 56/55/28 58/57/28 57/58/28
f 57/58/29 58/57/29 60/59/29 59/60/29
f 59/60/30 60/59/30 62/61/30 61/62/30
f 12/11/31 10/9/31 69/63/31 70/64/31
f 61/62/32 62/61/32 64/65/32 63/66/32
f 63/66/33 64/65/33 2/67/33 1/68/33
f 1/69/34 3/70/34 5/71/34 7/72/34 9/73/34 11/74/34 13/75/34 15/76/34 17/77/34 19/78/34 21/79/34 23/80/34 25/81/34 27/82/34 29/83/34 31/84/34 33/85/34 35/86/34 37/87/34 39/88/34 41/89/34 43/90/34 45/91/34 47/92/34 49/93/34 51/94/34 53/95/34 55/96/34 57/97/34 59/98/34 61/99/34 63/100/34
f 77/101/35 76/102/35 108/103/35 109/104/35
f 30/29/31 28/27/31 78/105/31 79/106/31
f 48/47/31 46/45/31 87/107/31 88/108/31
f 4/3/31 2/2/31 65/109/31 66/110/31
f 2/67/31 64/65/31 96/111/31 65/112/31
f 22/21/31 20/19/31 74/113/31 75/114/31
f 40/39/31 38/37/31 83/115/31 84/116/31
f 58/57/31 56/55/31 92/117/31 93/118/31
f 14/13/31 12/11/31 70/64/31 71/119/31
f 32/31/31 30/29/31 79/106/31 80/120/31
f 50/49/31 48/47/31 88/108/31 89/121/31
f 6/5/31 4/3/31 66/110/31 67/122/31
f 24/23/31 22/21/31 75/114/31 76/102/31
f 42/41/31 40/39/31 84/116/31 85/123/31
f 60/59/31 58/57/31 93/118/31 94/124/31
f 16/15/31 14/13/31 71/119/31 72/125/31
f 34/33/31 32/31/31 80/120/31 81/126/31
f 52/51/31 50/49/31 89/121/31 90/127/31
f 8/7/31 6/5/31 67/122/31 68/128/31
f 26/25/31 24/23/31 76/102/31 77/101/31
f 44/43/31 42/41/31 85/123/31 86/129/31
f 62/61/31 60/59/31 94/124/31 95/130/31
f 18/17/31 16/15/31 72/125/31 73/131/31
f 36/35/31 34/33/31 81/126/31 82/132/31
f 54/53/31 52/51/31 90/127/31 91/133/31
f 10/9/31 8/7/31 68/128/31 69/63/31
f 28/27/31 26/25/31 77/101/31 78/105/31
f 46/45/31 44/43/31 86/129/31 87/107/31
f 64/65/31 62/61/31 95/130/31 96/111/31
f 20/19/31 18/17/31 73/131/31 74/113/31
f 38/37/31 36/35/31 82/132/31 83/115/31
f 56/55/31 54/53/31 91/133/31 92/117/31
f 98/134/31 97/135/31 128/136/31 127/137/31 126/138/31 125/139/31 124/140/31 123/141/31 122/142/31 121/143/31 120/144/31 119/145/31 118/146/31 117/147/31 116/148/31 115/149/31 114/150/31 113/151/31 112/152/31 111/153/31 110/154/31 109/155/31 108/156/31 107/157/31 106/158/31 105/159/31 104/160/31 103/161/31 102/162/31 101/163/31 100/164/31 99/165/31
f 91/133/36 90/127/36 122/166/36 123/167/36
f 78/105/37 77/101/37 109/104/37 110/168/37
f 92/117/38 91/133/38 123/167/38 124/169/38
f 79/106/39 78/105/39 110/168/39 111/170/39
f 66/110/40 65/109/40 97/171/40 98/172/40
f 93/118/41 92/117/41 124/169/41 125/173/41
f 80/120/42 79/106/42 111/170/42 112/174/42
f 67/122/43 66/110/43 98/172/43 99/175/43
f 94/124/44 93/118/44 125/173/44 126/176/44
f 81/126/45 80/120/45 112/174/45 113/177/45
f 68/128/46 67/122/46 99/175/46 100/178/46
f 95/130/47 94/124/47 126/176/47 127/179/47
f 82/132/48 81/126/48 113/177/48 114/180/48
f 69/63/49 68/128/49 100/178/49 101/181/49
f 96/111/50 95/130/50 127/179/50 128/182/50
f 83/115/51 82/132/51 114/180/51 115/183/51
f 70/64/52 69/63/52 101/181/52 102/184/52
f 65/112/53 96/111/53 128/182/53 97/185/53
f 84/116/54 83/115/54 115/183/54 116/186/54
f 71/119/55 70/64/55 102/184/55 103/187/55
f 85/123/56 84/116/56 116/186/56 117/188/56
f 72/125/57 71/119/57 103/187/57 104/189/57
f 86/129/58 85/123/58 117/188/58 118/190/58
f 73/131/59 72/125/59 104/189/59 105/191/59
f 87/107/60 86/129/60 118/190/60 119/192/60
f 74/113/61 73/131/61 105/191/61 106/193/61
f 88/108/62 87/107/62 119/192/62 120/194/62
f 75/114/63 74/113/63 106/193/63 107/195/63
f 89/121/64 88/108/64 120/194/64 121/196/64
f 76/102/65 75/114/65 107/195/65 108/103/65
f 90/127/66 89/121/66 121/196/66 122/166/66
